<mxfile host="app.diagrams.net" modified="2023-06-09T09:42:50.902Z" agent="Mozilla/5.0 (Windows NT 10.0; Win64; x64) AppleWebKit/537.36 (KHTML, like Gecko) Chrome/113.0.0.0 Safari/537.36" etag="o_qTh__ImpaZTJ0MElDh" version="21.3.8" type="device">
  <diagram id="R2lEEEUBdFMjLlhIrx00" name="Page-1">
    <mxGraphModel dx="794" dy="438" grid="1" gridSize="10" guides="1" tooltips="1" connect="1" arrows="1" fold="1" page="1" pageScale="1" pageWidth="850" pageHeight="1100" math="0" shadow="0" extFonts="Permanent Marker^https://fonts.googleapis.com/css?family=Permanent+Marker">
      <root>
        <mxCell id="0" />
        <mxCell id="1" parent="0" />
        <mxCell id="OXerU3eHVZxebGTRg5w8-5" value="System" style="swimlane;fontStyle=0;childLayout=stackLayout;horizontal=1;startSize=26;horizontalStack=0;resizeParent=1;resizeParentMax=0;resizeLast=0;collapsible=1;marginBottom=0;align=center;fontSize=14;fillColor=#647687;fontColor=#ffffff;strokeColor=#314354;" vertex="1" parent="1">
          <mxGeometry x="40" y="35" width="160" height="86" as="geometry" />
        </mxCell>
        <mxCell id="OXerU3eHVZxebGTRg5w8-6" value="id" style="text;strokeColor=#314354;fillColor=#647687;spacingLeft=4;spacingRight=4;overflow=hidden;rotatable=0;points=[[0,0.5],[1,0.5]];portConstraint=eastwest;fontSize=12;whiteSpace=wrap;html=1;fontColor=#ffffff;" vertex="1" parent="OXerU3eHVZxebGTRg5w8-5">
          <mxGeometry y="26" width="160" height="30" as="geometry" />
        </mxCell>
        <mxCell id="OXerU3eHVZxebGTRg5w8-16" value="Creation_date" style="text;strokeColor=#314354;fillColor=#647687;spacingLeft=4;spacingRight=4;overflow=hidden;rotatable=0;points=[[0,0.5],[1,0.5]];portConstraint=eastwest;fontSize=12;whiteSpace=wrap;html=1;fontColor=#ffffff;" vertex="1" parent="OXerU3eHVZxebGTRg5w8-5">
          <mxGeometry y="56" width="160" height="30" as="geometry" />
        </mxCell>
        <mxCell id="OXerU3eHVZxebGTRg5w8-10" value="Coefficents" style="swimlane;fontStyle=0;childLayout=stackLayout;horizontal=1;startSize=26;horizontalStack=0;resizeParent=1;resizeParentMax=0;resizeLast=0;collapsible=1;marginBottom=0;align=center;fontSize=14;fillColor=#647687;fontColor=#ffffff;strokeColor=#314354;" vertex="1" parent="1">
          <mxGeometry x="260" y="35" width="160" height="146" as="geometry" />
        </mxCell>
        <mxCell id="OXerU3eHVZxebGTRg5w8-11" value="System_id" style="text;strokeColor=#314354;fillColor=#647687;spacingLeft=4;spacingRight=4;overflow=hidden;rotatable=0;points=[[0,0.5],[1,0.5]];portConstraint=eastwest;fontSize=12;whiteSpace=wrap;html=1;fontColor=#ffffff;" vertex="1" parent="OXerU3eHVZxebGTRg5w8-10">
          <mxGeometry y="26" width="160" height="30" as="geometry" />
        </mxCell>
        <mxCell id="OXerU3eHVZxebGTRg5w8-12" value="Row_id" style="text;strokeColor=#314354;fillColor=#647687;spacingLeft=4;spacingRight=4;overflow=hidden;rotatable=0;points=[[0,0.5],[1,0.5]];portConstraint=eastwest;fontSize=12;whiteSpace=wrap;html=1;fontColor=#ffffff;" vertex="1" parent="OXerU3eHVZxebGTRg5w8-10">
          <mxGeometry y="56" width="160" height="30" as="geometry" />
        </mxCell>
        <mxCell id="OXerU3eHVZxebGTRg5w8-13" value="Column_id" style="text;strokeColor=#314354;fillColor=#647687;spacingLeft=4;spacingRight=4;overflow=hidden;rotatable=0;points=[[0,0.5],[1,0.5]];portConstraint=eastwest;fontSize=12;whiteSpace=wrap;html=1;fontColor=#ffffff;" vertex="1" parent="OXerU3eHVZxebGTRg5w8-10">
          <mxGeometry y="86" width="160" height="30" as="geometry" />
        </mxCell>
        <mxCell id="OXerU3eHVZxebGTRg5w8-14" value="value" style="text;strokeColor=#314354;fillColor=#647687;spacingLeft=4;spacingRight=4;overflow=hidden;rotatable=0;points=[[0,0.5],[1,0.5]];portConstraint=eastwest;fontSize=12;whiteSpace=wrap;html=1;fontColor=#ffffff;" vertex="1" parent="OXerU3eHVZxebGTRg5w8-10">
          <mxGeometry y="116" width="160" height="30" as="geometry" />
        </mxCell>
        <mxCell id="OXerU3eHVZxebGTRg5w8-15" value="" style="edgeStyle=entityRelationEdgeStyle;fontSize=12;html=1;endArrow=ERoneToMany;startArrow=ERmandOne;rounded=0;exitX=1;exitY=0.5;exitDx=0;exitDy=0;entryX=0;entryY=0.5;entryDx=0;entryDy=0;fillColor=#647687;strokeColor=#314354;" edge="1" parent="1" source="OXerU3eHVZxebGTRg5w8-6" target="OXerU3eHVZxebGTRg5w8-11">
          <mxGeometry width="100" height="100" relative="1" as="geometry">
            <mxPoint x="280" y="190" as="sourcePoint" />
            <mxPoint x="380" y="90" as="targetPoint" />
          </mxGeometry>
        </mxCell>
      </root>
    </mxGraphModel>
  </diagram>
</mxfile>
